<?xml version="1.0" encoding="UTF-8"?>
<svg width="202px" height="46px" viewBox="0 0 202 46" version="1.1" xmlns="http://www.w3.org/2000/svg" xmlns:xlink="http://www.w3.org/1999/xlink">
    <!-- Generator: Sketch 41.2 (35397) - http://www.bohemiancoding.com/sketch -->
    <title>btn_dl_cv</title>
    <desc>Created with Sketch.</desc>
    <defs></defs>
    <g id="Page-1" stroke="none" stroke-width="1" fill="none" fill-rule="evenodd">
        <g id="HD-Widescreen" transform="translate(-952.000000, -37.000000)">
            <g id="Home-UI-Grid" transform="translate(20.000000, 20.000000)">
                <g id="Navbar">
                    <g id="btn_dl_cv" transform="translate(932.000000, 17.000000)">
                        <path d="M0,23 C0,10.2974508 10.2949202,0 22.9998489,0 L179.000151,0 C191.702617,0 202,10.2946578 202,23 L202,23 C202,35.7025492 191.70508,46 179.000151,46 L22.9998489,46 C10.2973831,46 0,35.7053422 0,23 L0,23 Z" id="Combined-Shape" fill="#61D305"></path>
                        <path d="M172.283288,20.2877261 C171.925077,19.9295152 171.343968,19.9295152 170.985757,20.2877261 C170.627021,20.6464623 170.627422,21.2269222 170.985757,21.5852572 L175.608212,26.2077117 C175.966547,26.5660467 176.547007,26.5664478 176.905743,26.2077117 L181.528197,21.5852572 C181.886408,21.2270463 181.886408,20.6459371 181.528197,20.2877261 C181.169986,19.9295152 180.588877,19.9295152 180.230666,20.2877261 L176.256977,24.261415 L172.283288,20.2877261 Z" id="ico_down" fill="#FFFFFF"></path>
                        <path d="M57.1855469,22.6347656 C57.1855469,24.0449289 56.7841837,25.1249962 55.9814453,25.875 C55.1787069,26.6250038 54.0195388,27 52.5039062,27 L50.078125,27 L50.078125,18.4335938 L52.7675781,18.4335938 C54.1660226,18.4335938 55.2519493,18.8027307 56.0253906,19.5410156 C56.798832,20.2793006 57.1855469,21.3105403 57.1855469,22.6347656 Z M55.2988281,22.6816406 C55.2988281,20.8417877 54.4863363,19.921875 52.8613281,19.921875 L51.8945312,19.921875 L51.8945312,25.5 L52.6738281,25.5 C54.4238369,25.5 55.2988281,24.5605563 55.2988281,22.6816406 Z M68.4506137,22.7050781 C68.4506137,24.123054 68.0990548,25.2128868 67.3959262,25.9746094 C66.6927977,26.7363319 65.6849953,27.1171875 64.3724887,27.1171875 C63.0599822,27.1171875 62.0521798,26.7363319 61.3490512,25.9746094 C60.6459227,25.2128868 60.2943637,24.1191478 60.2943637,22.6933594 C60.2943637,21.267571 60.6468993,20.1787147 61.3519809,19.4267578 C62.0570626,18.6748009 63.0677947,18.2988281 64.3842075,18.2988281 C65.7006203,18.2988281 66.7074462,18.6777306 67.4047153,19.4355469 C68.1019844,20.1933632 68.4506137,21.283196 68.4506137,22.7050781 Z M62.1986606,22.7050781 C62.1986606,23.6621142 62.3802994,24.3828101 62.7435825,24.8671875 C63.1068656,25.3515649 63.6498289,25.59375 64.3724887,25.59375 C65.8217147,25.59375 66.5463169,24.630869 66.5463169,22.7050781 C66.5463169,20.775381 65.8256209,19.8105469 64.3842075,19.8105469 C63.6615476,19.8105469 63.1166312,20.0537085 62.7494419,20.5400391 C62.3822525,21.0263696 62.1986606,21.7480421 62.1986606,22.7050781 Z M80.1668525,27 L78.0984931,27 L76.9383368,22.5 C76.8953679,22.3398429 76.8221264,22.0087916 76.7186103,21.5068359 C76.6150941,21.0048803 76.5555244,20.6679696 76.5398993,20.4960938 C76.5164617,20.7070323 76.4578686,21.0458961 76.3641181,21.5126953 C76.2703676,21.9794945 76.1981027,22.312499 76.1473212,22.5117188 L74.9930243,27 L72.9305243,27 L70.7449775,18.4335938 L72.5320868,18.4335938 L73.62779,23.109375 C73.8191972,23.9726606 73.9578677,24.7207 74.0438056,25.3535156 C74.0672432,25.1308583 74.1209536,24.7861351 74.2049384,24.3193359 C74.2889232,23.8525367 74.368024,23.4902357 74.4422431,23.2324219 L75.69029,18.4335938 L77.4070868,18.4335938 L78.6551337,23.2324219 C78.7098215,23.4472667 78.7781802,23.7753884 78.8602118,24.2167969 C78.9422435,24.6582053 79.0047429,25.0371078 79.0477118,25.3535156 C79.0867745,25.0488266 79.1492739,24.6689476 79.2352118,24.2138672 C79.3211498,23.7587868 79.399274,23.3906264 79.4695868,23.109375 L80.5594306,18.4335938 L82.34654,18.4335938 L80.1668525,27 Z M92.73856,27 L90.4299662,27 L86.7034037,20.5195312 L86.6506693,20.5195312 C86.7248885,21.6640682 86.7619975,22.4804663 86.7619975,22.96875 L86.7619975,27 L85.1389506,27 L85.1389506,18.4335938 L87.4299662,18.4335938 L91.1506693,24.8496094 L91.191685,24.8496094 C91.1330909,23.7363226 91.1037943,22.9492211 91.1037943,22.4882812 L91.1037943,18.4335938 L92.73856,18.4335938 L92.73856,27 Z M96.6090956,27 L96.6090956,18.4335938 L98.4255018,18.4335938 L98.4255018,25.5 L101.900111,25.5 L101.900111,27 L96.6090956,27 Z M112.637834,22.7050781 C112.637834,24.123054 112.286275,25.2128868 111.583147,25.9746094 C110.880018,26.7363319 109.872216,27.1171875 108.559709,27.1171875 C107.247203,27.1171875 106.2394,26.7363319 105.536272,25.9746094 C104.833143,25.2128868 104.481584,24.1191478 104.481584,22.6933594 C104.481584,21.267571 104.83412,20.1787147 105.539201,19.4267578 C106.244283,18.6748009 107.255015,18.2988281 108.571428,18.2988281 C109.887841,18.2988281 110.894667,18.6777306 111.591936,19.4355469 C112.289205,20.1933632 112.637834,21.283196 112.637834,22.7050781 Z M106.385881,22.7050781 C106.385881,23.6621142 106.56752,24.3828101 106.930803,24.8671875 C107.294086,25.3515649 107.837049,25.59375 108.559709,25.59375 C110.008935,25.59375 110.733537,24.630869 110.733537,22.7050781 C110.733537,20.775381 110.012842,19.8105469 108.571428,19.8105469 C107.848768,19.8105469 107.303852,20.0537085 106.936662,20.5400391 C106.569473,21.0263696 106.385881,21.7480421 106.385881,22.7050781 Z M121.131417,27 L120.510323,24.9609375 L117.387276,24.9609375 L116.766182,27 L114.809151,27 L117.832589,18.3984375 L120.053292,18.3984375 L123.088448,27 L121.131417,27 Z M120.076729,23.4375 C119.502508,21.5898345 119.179269,20.5449231 119.107003,20.3027344 C119.034737,20.0605457 118.982979,19.8691413 118.951729,19.7285156 C118.822822,20.2285181 118.453685,21.4648339 117.844307,23.4375 L120.076729,23.4375 Z M132.988281,22.6347656 C132.988281,24.0449289 132.586917,25.1249962 131.784179,25.875 C130.981441,26.6250038 129.822272,27 128.30664,27 L125.880859,27 L125.880859,18.4335938 L128.570312,18.4335938 C129.968756,18.4335938 131.054683,18.8027307 131.828124,19.5410156 C132.601566,20.2793006 132.988281,21.3105403 132.988281,22.6347656 Z M131.101562,22.6816406 C131.101562,20.8417877 130.28907,19.921875 128.664062,19.921875 L127.697265,19.921875 L127.697265,25.5 L128.476562,25.5 C130.226571,25.5 131.101562,24.5605563 131.101562,22.6816406 Z M144.948102,19.8222656 C144.264505,19.8222656 143.735213,20.079099 143.360211,20.5927734 C142.985209,21.1064479 142.797711,21.822261 142.797711,22.7402344 C142.797711,24.6504002 143.514501,25.6054688 144.948102,25.6054688 C145.549667,25.6054688 146.278176,25.4550796 147.133649,25.1542969 L147.133649,26.6777344 C146.43052,26.9707046 145.645372,27.1171875 144.77818,27.1171875 C143.53208,27.1171875 142.578964,26.7392616 141.918805,25.9833984 C141.258645,25.2275353 140.928571,24.1425852 140.928571,22.7285156 C140.928571,21.8378862 141.090678,21.0576205 141.414899,20.3876953 C141.739119,19.7177701 142.204935,19.2041033 142.81236,18.8466797 C143.419784,18.489256 144.131691,18.3105469 144.948102,18.3105469 C145.780137,18.3105469 146.616066,18.5117167 147.455914,18.9140625 L146.869977,20.390625 C146.549663,20.2382805 146.2274,20.1054693 145.90318,19.9921875 C145.57896,19.8789057 145.260603,19.8222656 144.948102,19.8222656 Z M155.556919,18.4335938 L157.390903,18.4335938 L154.478794,27 L152.498325,27 L149.592075,18.4335938 L151.426059,18.4335938 L153.037387,23.53125 C153.127232,23.8320328 153.220004,24.1826152 153.315708,24.5830078 C153.411411,24.9834004 153.470981,25.261718 153.494419,25.4179688 C153.537388,25.058592 153.68387,24.429692 153.933872,23.53125 L155.556919,18.4335938 Z" id="DOWNLOAD-CV" fill="#F2F2F2"></path>
                        <g id="ico_doc" transform="translate(21.000000, 13.000000)" fill="#F2F2F2">
                            <path d="M10.832,21.53 C10.556,21.53 10.332,21.306 10.332,21.03 L10.332,15.03 C10.332,14.753 10.556,14.53 10.832,14.53 L16.832,14.53 C17.108,14.53 17.332,14.753 17.332,15.03 C17.332,15.306 17.108,15.53 16.832,15.53 L11.332,15.53 L11.332,21.03 C11.332,21.306 11.108,21.53 10.832,21.53" id="Fill-495"></path>
                            <path d="M1,20.53 L10.625,20.53 L16.332,14.823 L16.332,1 L1,1 L1,20.53 L1,20.53 Z M10.832,21.53 L0.5,21.53 C0.223,21.53 0,21.306 0,21.03 L0,0.5 C0,0.224 0.223,0 0.5,0 L16.832,0 C17.108,0 17.332,0.224 17.332,0.5 L17.332,15.03 C17.332,15.163 17.279,15.29 17.185,15.383 L11.185,21.383 C11.092,21.477 10.965,21.53 10.832,21.53 L10.832,21.53 Z" id="Fill-496"></path>
                            <path d="M9.75,4.793 L3.875,4.793 C3.598,4.793 3.375,4.57 3.375,4.293 C3.375,4.017 3.598,3.793 3.875,3.793 L9.75,3.793 C10.026,3.793 10.25,4.017 10.25,4.293 C10.25,4.57 10.026,4.793 9.75,4.793" id="Fill-497"></path>
                            <path d="M13.625,7.211 L3.875,7.211 C3.598,7.211 3.375,6.988 3.375,6.711 C3.375,6.435 3.598,6.211 3.875,6.211 L13.625,6.211 C13.901,6.211 14.125,6.435 14.125,6.711 C14.125,6.988 13.901,7.211 13.625,7.211" id="Fill-498"></path>
                            <path d="M13.625,9.627 L3.875,9.627 C3.598,9.627 3.375,9.404 3.375,9.127 C3.375,8.851 3.598,8.627 3.875,8.627 L13.625,8.627 C13.901,8.627 14.125,8.851 14.125,9.127 C14.125,9.404 13.901,9.627 13.625,9.627" id="Fill-499"></path>
                            <path d="M7.957,12.045 L3.875,12.045 C3.598,12.045 3.375,11.822 3.375,11.545 C3.375,11.269 3.598,11.045 3.875,11.045 L7.957,11.045 C8.233,11.045 8.457,11.269 8.457,11.545 C8.457,11.822 8.233,12.045 7.957,12.045" id="Fill-500"></path>
                        </g>
                    </g>
                </g>
            </g>
        </g>
    </g>
</svg>