<?xml version="1.0" encoding="UTF-8"?>
<svg width="163px" height="46px" viewBox="0 0 163 46" version="1.1" xmlns="http://www.w3.org/2000/svg" xmlns:xlink="http://www.w3.org/1999/xlink">
    <!-- Generator: Sketch 41.2 (35397) - http://www.bohemiancoding.com/sketch -->
    <title>btn_read</title>
    <desc>Created with Sketch.</desc>
    <defs></defs>
    <g id="Page-1" stroke="none" stroke-width="1" fill="none" fill-rule="evenodd">
        <g id="HD-Widescreen" transform="translate(-97.000000, -377.000000)">
            <g id="Home-UI-Grid" transform="translate(20.000000, 20.000000)">
                <g id="2-x-height-1/2-Feature" transform="translate(0.000000, 80.000000)">
                    <g id="Content" transform="translate(77.000000, 53.000000)">
                        <g id="btn_read" transform="translate(0.000000, 224.000000)">
                            <path d="M0,23 C0,10.2974508 10.2890629,0 23.008205,0 L139.991795,0 C152.698876,0 163,10.2946578 163,23 L163,23 C163,35.7025492 152.710937,46 139.991795,46 L23.008205,46 C10.3011243,46 0,35.7053422 0,23 L0,23 Z" id="Rectangle-3" fill="#61D305"></path>
                            <text id="READ-NOW" font-family="OpenSans-Semibold, Open Sans" font-size="13" font-weight="500" fill="#4A3A4D">
                                <tspan x="45" y="28">READ NOW</tspan>
                            </text>
                            <g id="Read-Icon-Bookmark" transform="translate(22.000000, 16.000000)" stroke="#4A3A4D" stroke-width="0.3" fill="#4A3A4D">
                                <path d="M9.60727778,14.3873889 L1.08594444,14.3873889 C0.487055556,14.3873889 0,13.8997222 0,13.3002222 L0,1.86694444 C0,1.69827778 0.136277778,1.56138889 0.305555556,1.56138889 C0.474222222,1.56138889 0.611111111,1.69827778 0.611111111,1.86694444 L0.611111111,13.3002222 C0.611111111,13.5623889 0.823777778,13.7762778 1.08594444,13.7762778 L9.60727778,13.7762778 C9.86944444,13.7762778 10.0833333,13.5623889 10.0833333,13.3002222 L10.0833333,3.64344444 C10.0833333,3.38127778 9.86944444,3.16738889 9.60727778,3.16738889 C9.438,3.16738889 9.30172222,3.03111111 9.30172222,2.86183333 C9.30172222,2.69316667 9.438,2.55627778 9.60727778,2.55627778 C10.2067778,2.55627778 10.6944444,3.04394444 10.6944444,3.64344444 L10.6944444,13.3002222 C10.6944444,13.8997222 10.2067778,14.3873889 9.60727778,14.3873889" id="Fill-678"></path>
                                <path d="M9.48872222,3.16677778 L1.58277778,3.16677778 C0.710111111,3.16677778 0,2.45666667 0,1.58338889 C0,0.710722222 0.710111111,0 1.58277778,0 L10.3888889,0 C10.5575556,0 10.6944444,0.136277778 10.6944444,0.305555556 C10.6944444,0.474222222 10.5575556,0.611111111 10.3888889,0.611111111 L1.58277778,0.611111111 C1.04683333,0.611111111 0.611111111,1.04744444 0.611111111,1.58338889 C0.611111111,2.11933333 1.04683333,2.55566667 1.58277778,2.55566667 L9.48872222,2.55566667 C9.658,2.55566667 9.79427778,2.69255556 9.79427778,2.86122222 C9.79427778,3.0305 9.658,3.16677778 9.48872222,3.16677778" id="Fill-679"></path>
                                <path d="M5.3185,9.77227778 C5.27694444,9.77227778 5.23477778,9.76372222 5.19566667,9.74661111 L3.97466667,9.21066667 L2.75366667,9.74661111 C2.65894444,9.78816667 2.55138889,9.779 2.46338889,9.72277778 C2.37661111,9.66594444 2.32527778,9.57 2.32527778,9.46672222 L2.32527778,3.45766667 C2.32527778,3.28838889 2.46155556,3.15211111 2.63083333,3.15211111 C2.7995,3.15211111 2.93638889,3.28838889 2.93638889,3.45766667 L2.93638889,8.99861111 L3.85183333,8.59711111 C3.93005556,8.56227778 4.01866667,8.56227778 4.0975,8.59711111 L5.01294444,8.99861111 L5.01294444,3.45766667 C5.01294444,3.28838889 5.14983333,3.15211111 5.3185,3.15211111 C5.48716667,3.15211111 5.62405556,3.28838889 5.62405556,3.45766667 L5.62405556,9.46672222 C5.62405556,9.57 5.57211111,9.66594444 5.48533333,9.72277778 C5.43461111,9.75577778 5.37716667,9.77227778 5.3185,9.77227778" id="Fill-680"></path>
                            </g>
                            <path d="M139.163041,22.9418969 L134.882295,27.2226427 C134.687133,27.4178042 134.687133,27.734588 134.882295,27.9297495 C135.078163,28.1256181 135.39424,28.124911 135.589401,27.9297495 L140.627537,22.8916137 C140.822699,22.6964522 140.823406,22.3803755 140.627537,22.1845069 L135.589401,17.1463711 C135.39424,16.9512096 135.077456,16.9512096 134.882295,17.1463711 C134.687133,17.3415326 134.687133,17.6583164 134.882295,17.8534779 L138.970277,21.9414601 L127.499924,21.9485874 C127.224153,21.9485874 127,22.1727402 127,22.4485119 C127,22.5871048 127.056569,22.7115556 127.147078,22.8020652 C127.237588,22.8925749 127.362039,22.9491435 127.500632,22.9491435 L139.163041,22.9418969 Z" id="Combined-Shape" fill="#4A3A4D"></path>
                        </g>
                    </g>
                </g>
            </g>
        </g>
    </g>
</svg>