<?xml version="1.0" encoding="UTF-8"?>
<svg width="18px" height="22px" viewBox="0 0 18 22" version="1.1" xmlns="http://www.w3.org/2000/svg" xmlns:xlink="http://www.w3.org/1999/xlink">
    <!-- Generator: Sketch 41.2 (35397) - http://www.bohemiancoding.com/sketch -->
    <title>ico_doc</title>
    <desc>Created with Sketch.</desc>
    <defs></defs>
    <g id="Page-1" stroke="none" stroke-width="1" fill="none" fill-rule="evenodd">
        <g id="HD-Widescreen" transform="translate(-968.000000, -49.000000)" fill="#61D305">
            <g id="Home-UI-Grid" transform="translate(20.000000, 20.000000)">
                <g id="Navbar">
                    <g id="Download-CV" transform="translate(927.000000, 17.000000)">
                        <g id="ico_doc" transform="translate(21.000000, 12.000000)">
                            <path d="M10.832,21.53 C10.556,21.53 10.332,21.306 10.332,21.03 L10.332,15.03 C10.332,14.753 10.556,14.53 10.832,14.53 L16.832,14.53 C17.108,14.53 17.332,14.753 17.332,15.03 C17.332,15.306 17.108,15.53 16.832,15.53 L11.332,15.53 L11.332,21.03 C11.332,21.306 11.108,21.53 10.832,21.53" id="Fill-495"></path>
                            <path d="M1,20.53 L10.625,20.53 L16.332,14.823 L16.332,1 L1,1 L1,20.53 L1,20.53 Z M10.832,21.53 L0.5,21.53 C0.223,21.53 0,21.306 0,21.03 L0,0.5 C0,0.224 0.223,0 0.5,0 L16.832,0 C17.108,0 17.332,0.224 17.332,0.5 L17.332,15.03 C17.332,15.163 17.279,15.29 17.185,15.383 L11.185,21.383 C11.092,21.477 10.965,21.53 10.832,21.53 L10.832,21.53 Z" id="Fill-496"></path>
                            <path d="M9.75,4.793 L3.875,4.793 C3.598,4.793 3.375,4.57 3.375,4.293 C3.375,4.017 3.598,3.793 3.875,3.793 L9.75,3.793 C10.026,3.793 10.25,4.017 10.25,4.293 C10.25,4.57 10.026,4.793 9.75,4.793" id="Fill-497"></path>
                            <path d="M13.625,7.211 L3.875,7.211 C3.598,7.211 3.375,6.988 3.375,6.711 C3.375,6.435 3.598,6.211 3.875,6.211 L13.625,6.211 C13.901,6.211 14.125,6.435 14.125,6.711 C14.125,6.988 13.901,7.211 13.625,7.211" id="Fill-498"></path>
                            <path d="M13.625,9.627 L3.875,9.627 C3.598,9.627 3.375,9.404 3.375,9.127 C3.375,8.851 3.598,8.627 3.875,8.627 L13.625,8.627 C13.901,8.627 14.125,8.851 14.125,9.127 C14.125,9.404 13.901,9.627 13.625,9.627" id="Fill-499"></path>
                            <path d="M7.957,12.045 L3.875,12.045 C3.598,12.045 3.375,11.822 3.375,11.545 C3.375,11.269 3.598,11.045 3.875,11.045 L7.957,11.045 C8.233,11.045 8.457,11.269 8.457,11.545 C8.457,11.822 8.233,12.045 7.957,12.045" id="Fill-500"></path>
                        </g>
                    </g>
                </g>
            </g>
        </g>
    </g>
</svg>